<svg xmlns="http://www.w3.org/2000/svg" viewBox="0 0 170.1 38"><path fill="#cc2f2f" d="M12.9 30.5c-.5 0-1.6 0-2.3-.1 0 0-2.6-.3-4.4-1.3-1.9-1-3.5-2.6-4.6-4.7-1.1-2-1.6-4.5-1.6-7.6 0-3.1.5-5.7 1.6-7.8 1.2-2.3 2.9-4 5-5.1 2-1 4.1-1.5 6.3-1.5 2.1 0 4 .4 5.7 1.3 1.7.9 3.1 2.1 4.2 3.6.7 1 1.2 2.6 1.2 2.6.2.7.5 1.4.5 1.6 0 .2.2.3.2.3s.3.2.3.5.1 1.1.3 1.8.2 1.2 0 1.3c-.2.1-.3.7-.3 1.4v12.1c0 .7-.6 1.3-1.3 1.3h-7.5c-.7 0-2.7.3-3.3.3z"/><path fill="#cc2f2f" d="M40.9 28.9c0 .7-.6 1.3-1.3 1.3H20.8c-.7 0-1.3-.6-1.3-1.3V4.1c0-.7.6-1.3 1.3-1.3h18.8c.7 0 1.3.6 1.3 1.3v9.7c0 .7-.6 1.3-1.3 1.3h-.7c-.7 0-1.3.6-1.3 1.3v.1c0 .7.6 1.3 1.3 1.3h.7c.7 0 1.3.6 1.3 1.3v9.8zM72.5 30.5c-.5 0-1.6 0-2.3-.1 0 0-2.6-.3-4.4-1.3-1.9-1-3.5-2.6-4.6-4.7-1.1-2-1.6-4.5-1.6-7.6 0-3.1.5-5.7 1.7-7.8 1.2-2.3 2.9-4 5-5.1 2-1 4.1-1.5 6.3-1.5 2.1 0 4 .4 5.7 1.3 1.7.9 3.1 2.1 4.2 3.6.7 1 1.2 2.6 1.2 2.6.2.7.5 1.4.5 1.6 0 .2.2.3.2.3s.2.3.2.6.1 1.1.3 1.8.2 1.2 0 1.3c-.2.1-.3.7-.3 1.4V29c0 .7-.6 1.3-1.3 1.3h-7.5c-.7-.1-2.7.2-3.3.2z"/><path fill="#cc2f2f" d="M92.2 30.4c-.7.1-1.9.2-2.7.1 0 0-2.4-.2-4-.8-1.2-.4-2.2-1.1-3.1-1.8-1-.9-1.9-2.1-2.5-3.5-.7-1.4-.9-3.9-.9-3.9-.1-.7-.1-1.9-.1-2.7V4.1c0-.7.6-1.3 1.3-1.3h21.1c.7 0 1.3.6 1.3 1.3v13.6c0 .7-.1 1.9-.2 2.7 0 0-.9 5-3 7.1-2 2-7.2 2.9-7.2 2.9z"/><path fill="#cc2f2f" d="M119.2 28.9c0 .7-.6 1.3-1.3 1.3H99.1c-.7 0-1.3-.6-1.3-1.3V4.1c0-.7.6-1.3 1.3-1.3h18.8c.7 0 1.3.6 1.3 1.3v9.7c0 .7-.6 1.3-1.3 1.3h-.7c-.7 0-1.3.6-1.3 1.3v.1c0 .7.6 1.3 1.3 1.3h.7c.7 0 1.3.6 1.3 1.3v9.8z"/><path fill="#cc2f2f" d="M125.1 30.4c-.7.1-1.9.1-2.7 0 0 0-2.3-.2-3.8-.9s-2.8-1.6-3.9-2.8c-.7-.7-1.2-1.7-1.2-1.7-.4-.6-1-1.7-1.3-2.3l-1.1-2.1c-.3-.7-.1-1.4.6-1.7l1.7-.7c.7-.3 1-1 .6-1.7 0 0-1.1-2.2-1.1-4.2 0-2.8 1.1-5.3 3.1-7.2 2-1.8 4.5-2.7 7.6-2.7 1.7 0 3.3.3 4.7.9 1.4.6 2.5 1.4 3.5 2.3.7.7 1.2 1.4 1.2 1.4.4.6 1 1.6 1.4 2.3l1.3 2.2c.4.6.1 1.4-.6 1.7l-1.1.4c-.7.3-.9 1-.5 1.5l.3.6c.7 1.5 1.1 3 1.1 4.6 0 1.7-.5 3.4-1.4 5-1 1.8-2.4 3.1-4.3 4-1.6.9-4.1 1.1-4.1 1.1z"/><path fill="#cc2f2f" d="M141.2 30.4c-.7.1-1.9.1-2.7 0 0 0-2.3-.2-3.8-.9s-2.8-1.6-3.9-2.8c-.7-.7-1.2-1.7-1.2-1.7-.4-.6-1-1.7-1.3-2.3l-1.1-2.1c-.3-.7-.1-1.4.6-1.7l1.7-.7c.7-.3 1-1 .6-1.7 0 0-1.1-2.2-1.1-4.2 0-2.8 1.1-5.3 3.1-7.2 2-1.8 4.5-2.7 7.6-2.7 1.7 0 3.3.3 4.7.9 1.4.6 2.5 1.4 3.5 2.3.7.7 1.2 1.4 1.2 1.4.4.6 1 1.6 1.4 2.3l1.3 2.2c.4.6.1 1.4-.6 1.7l-1.1.4c-.7.3-.9 1-.5 1.5l.3.6c.7 1.5 1.1 3 1.1 4.6 0 1.7-.5 3.4-1.4 5-1 1.8-2.4 3.1-4.3 4-1.6.9-4.1 1.1-4.1 1.1z"/><path fill="#cc2f2f" d="M170 29c.3.7-.1 1.2-.8 1.2h-22.3c-.7 0-1.3-.6-1.3-1.3V4.1c0-.7.6-1.3 1.3-1.3h6.9c.7 0 1.9 0 2.7.1 0 0 4.2.2 5.9.9 1.9.8 3.5 2.1 4.6 3.8 1 1.7 1.5 3.5 1.5 5.6 0 2.1-.5 3.9-1.6 5.4l-.2.3c-.3.3-.3 1.1 0 1.8L170 29zM50 38l-3.2-3.2C35.8 23.8 35 17 35 14.9 35.1 6.7 41.8 0 50 0s14.9 6.7 15 14.9c.1 2.1-.8 8.9-11.7 19.9L50 38z"/><g><path fill="#fff" d="M17.5 23.4c-.7.8-1.5 1.4-2.2 1.8-1 .5-2.2.8-3.4.8-1.2 0-2.4-.3-3.5-.9-1.1-.6-2-1.6-2.8-2.9s-1.1-3.1-1.1-5.4c0-2.4.4-4.3 1.1-5.7.8-1.4 1.8-2.5 3.1-3.2 1.3-.7 2.7-1 4.2-1 1.4 0 2.6.3 3.6.8s1.9 1.2 2.5 2.2c.4.6.8 1.4 1 2.4l-2.9 1c-.3-1-.7-1.7-1.3-2.2-.7-.7-1.7-1.1-2.9-1.1-1.4 0-2.5.5-3.4 1.4-.9.9-1.3 2.6-1.3 5 0 1.7.2 3 .6 3.9.4.9.9 1.5 1.6 2 .7.5 1.5.7 2.3.7.6 0 1.2-.1 1.8-.4.6-.3 1.1-.6 1.5-.9.4-.4.7-.7.8-1.1s.4-.9.5-1.5h-4.8v-2.7h7.7v9.4h-2.9v-2.4zM24.1 7.3h12.3v3.2h-8.7v4H33v2.7h-5.3v5.2h8.7v3.2H24.1V7.3zM77.1 23.4c-.7.8-1.5 1.4-2.2 1.8-1 .5-2.2.8-3.4.8-1.2 0-2.4-.3-3.5-.9-1.1-.6-2-1.6-2.8-2.9s-1.1-3.1-1.1-5.4c0-2.4.4-4.3 1.1-5.7.8-1.4 1.8-2.5 3.1-3.2 1.3-.7 2.7-1 4.2-1 1.4 0 2.6.3 3.6.8s1.9 1.2 2.5 2.2c.4.6.8 1.4 1 2.4l-2.9 1c-.3-1-.7-1.7-1.3-2.2-.7-.7-1.7-1.1-2.9-1.1-1.4 0-2.5.5-3.4 1.4-.9.9-1.3 2.6-1.3 5 0 1.7.2 3 .5 3.9.4.9.9 1.5 1.6 2 .7.5 1.5.7 2.3.7.6 0 1.2-.1 1.8-.4.6-.3 1.1-.6 1.5-.9.4-.4.7-.7.8-1.1s.3-.9.5-1.5H72v-2.7h8v9.4h-2.9v-2.4zM83.5 7.3h3.6v11.2c0 1.4.3 2.4 1 3.1.6.7 1.5 1 2.6 1 .7 0 1.3-.1 1.9-.4.6-.3 1-.7 1.3-1.4.3-.6.5-1.4.5-2.4V7.3H98V19c0 2.2-.6 4-1.8 5.2-1.2 1.2-3 1.8-5.4 1.8-1.4 0-2.6-.2-3.8-.6-.6-.2-1.1-.5-1.6-.9-.6-.5-1.1-1.2-1.4-2s-.6-1.9-.6-3.3l.1-11.9zM102.3 7.3h12.3v3.2h-8.7v4h5.3v2.7h-5.3v5.2h8.7v3.2h-12.3V7.3zM120.1 20.5c.6.9 1.2 1.6 1.8 2 .6.4 1.3.5 2.1.5 1 0 1.7-.2 2.2-.7.5-.5.8-1 .8-1.7 0-.6-.2-1.1-.6-1.5-.4-.4-1.4-.8-2.9-1.2-2-.5-3.5-1.2-4.4-2-1.1-1-1.6-2.2-1.6-3.6 0-1.5.5-2.8 1.6-3.8s2.6-1.5 4.5-1.5c1.1 0 2.1.2 2.9.5.8.4 1.6.8 2.2 1.4.4.4.8.9 1.1 1.5l-3 1.2c-.5-.7-1-1.3-1.6-1.6-.5-.3-1.1-.5-1.8-.5-.8 0-1.5.2-1.9.7-.5.5-.7 1-.7 1.6 0 .5.2 1 .6 1.3.4.4 1.4.8 2.9 1.1 1.6.4 2.8.8 3.6 1.4.8.5 1.4 1.2 1.8 2 .4.8.6 1.7.6 2.6 0 .9-.3 1.9-.8 2.8-.5.9-1.3 1.7-2.3 2.2-1 .5-2.2.8-3.5.8-1.3 0-2.3-.2-3.3-.6-.9-.4-1.7-1-2.3-1.7-.4-.5-.8-1.1-1.3-1.9l3.3-1.3zM136.2 20.5c.6.9 1.2 1.6 1.8 2 .6.4 1.3.5 2.1.5 1 0 1.7-.2 2.2-.7.5-.5.8-1 .8-1.7 0-.6-.2-1.1-.6-1.5-.4-.4-1.4-.8-2.9-1.2-2-.5-3.5-1.2-4.4-2-1.1-1-1.6-2.2-1.6-3.6 0-1.5.5-2.8 1.6-3.8s2.6-1.5 4.5-1.5c1.1 0 2.1.2 2.9.5.9.4 1.6.8 2.2 1.4.4.4.8.9 1.1 1.5l-3 1.2c-.5-.7-1-1.3-1.6-1.6-.5-.3-1.1-.5-1.8-.5-.8 0-1.5.2-1.9.7-.5.5-.7 1-.7 1.6 0 .5.2 1 .6 1.3.4.4 1.4.8 2.9 1.1 1.6.4 2.8.8 3.6 1.4.8.5 1.4 1.2 1.8 2 .4.8.6 1.7.6 2.6 0 .9-.3 1.9-.8 2.8-.5.9-1.3 1.7-2.3 2.2-1 .5-2.2.8-3.5.8-1.3 0-2.3-.2-3.3-.6-.9-.4-1.7-1-2.3-1.7-.4-.5-.8-1.1-1.3-1.9l3.3-1.3zM150.1 7.3h5c2.7 0 4.5.2 5.5.6 1 .4 1.8 1.1 2.4 2 .6.9.9 2 .9 3.2 0 1.1-.3 2-.8 2.7-.5.7-1.4 1.3-2.7 1.8l3.3 8h-3.6l-3.1-7.4h-3.3v7.4h-3.6V7.3zm3.6 3.2v4.9h2.9c1.1 0 2-.3 2.7-.9.5-.4.7-1 .7-1.7s-.3-1.2-.8-1.7-1.4-.7-2.6-.7h-2.9zM60.4 15c0-5.8-4.6-10.4-10.4-10.4-5.8 0-10.4 4.7-10.4 10.4 0 0-.3 5.8 10.4 16.5C60.8 20.8 60.4 15 60.4 15zM50 15c-1.5 0-2.7-1.2-2.7-2.7 0-1.5 1.2-2.7 2.7-2.7 1.5 0 2.7 1.2 2.7 2.7 0 1.4-1.2 2.7-2.7 2.7z"/></g></svg>